<svg width="24" height="17" viewBox="0 0 24 17" fill="none" xmlns="http://www.w3.org/2000/svg">
<path d="M0 0H24V17H0V0Z" fill="#74ACDF"/>
<path d="M0 5.66667H24V11.3333H0V5.66667Z" fill="white"/>
<path d="M11.8848 8.5442L12.9108 10.6522C12.9108 10.6522 12.9288 10.693 12.9576 10.6828C12.9864 10.6692 12.9684 10.6318 12.9684 10.6318L12.1152 8.4558M12.09 9.2752C12.0756 9.5948 12.2844 9.7716 12.2592 10.0572C12.2304 10.3462 12.396 10.506 12.4392 10.6182C12.4752 10.7304 12.3924 10.795 12.4284 10.812C12.4644 10.829 12.5364 10.7406 12.5148 10.5808C12.4896 10.4244 12.3636 10.3768 12.3924 10.0266C12.4212 9.6764 12.2412 9.5948 12.2844 9.2786" fill="#F6B40E"/>
<path d="M11.8757 8.4992L11.9694 10.8176C11.9694 10.8176 11.9695 10.8618 12.0002 10.8627C12.0324 10.8606 12.0309 10.8195 12.0309 10.8195L12.1243 8.5008M11.769 9.24872C11.6262 9.53879 11.7475 9.77759 11.6085 10.0323C11.4648 10.2889 11.553 10.4964 11.5475 10.6157C11.5353 10.7324 11.4326 10.7621 11.459 10.7908C11.4854 10.8196 11.5877 10.7639 11.6325 10.6085C11.6726 10.4549 11.5755 10.3653 11.744 10.0522C11.9125 9.73908 11.7792 9.59864 11.9473 9.32212" fill="#F6B40E"/>
<path d="M11.8854 8.45432L11.0327 10.6301C11.0327 10.6301 11.0149 10.671 11.0429 10.683C11.0734 10.6926 11.0887 10.6541 11.0887 10.6541L12.1146 8.54568M11.4832 9.10825C11.2338 9.32463 11.2491 9.58909 11.0174 9.77421C10.7807 9.95933 10.7781 10.1829 10.7247 10.2911C10.6661 10.3945 10.5592 10.3849 10.5719 10.4209C10.5847 10.457 10.7018 10.4426 10.8061 10.3151C10.9054 10.1877 10.8519 10.0699 11.1345 9.84152C11.4171 9.61313 11.3509 9.43522 11.6182 9.24048" fill="#F6B40E"/>
<path d="M11.9127 8.4164L10.2432 10.1183C10.2432 10.1183 10.2102 10.1497 10.2312 10.1709C10.2555 10.1908 10.2852 10.1608 10.2852 10.1608L12.0873 8.5836M11.2761 8.87519C10.958 8.98493 10.8649 9.23477 10.5759 9.32208C10.2822 9.40755 10.1892 9.61319 10.096 9.69382C10 9.76817 9.90514 9.72065 9.90228 9.75856C9.89943 9.79648 10.0135 9.82548 10.1615 9.74548C10.3049 9.66364 10.3032 9.53548 10.6568 9.42659C11.0104 9.31771 11.0213 9.12942 11.3472 9.04611" fill="#F6B40E"/>
<path d="M12.1548 9.3296C12.1728 9.6356 12.3564 9.7716 12.3204 10.0538C12.3996 9.8328 12.2088 9.6594 12.2196 9.333M11.9424 8.5238L12.6444 9.9722L12.0576 8.4796" fill="#85340A"/>
<path d="M11.8069 9.3224C11.6995 9.61161 11.814 9.80362 11.6664 10.0513C11.8291 9.87577 11.7231 9.64661 11.8654 9.34896M11.9371 8.50117L11.9988 10.093L12.0615 8.50197" fill="#85340A"/>
<path d="M11.4883 9.18999C11.272 9.41839 11.3 9.63717 11.0632 9.81267C11.2847 9.70929 11.2796 9.45926 11.5316 9.23567M11.9415 8.47836L11.3534 9.97135L12.056 8.52404" fill="#85340A"/>
<path d="M11.2477 8.95254C10.9553 9.08535 10.8925 9.2976 10.6026 9.37418C10.8491 9.35871 10.9458 9.12587 11.2692 9.01039M11.9547 8.45885L10.8065 9.62566L12.042 8.54245" fill="#85340A"/>
<path d="M11.9532 8.3912L9.7212 9.3602C9.7212 9.3602 9.678 9.3772 9.6888 9.4044C9.7032 9.4316 9.7428 9.4146 9.7428 9.4146L12.0468 8.6088M11.1792 8.585C10.8408 8.5714 10.6536 8.7686 10.3512 8.7448C10.0452 8.7176 9.876 8.874 9.7572 8.9148C9.6384 8.9488 9.57 8.8706 9.552 8.9046C9.534 8.9386 9.6276 9.0066 9.7968 8.9862C9.9624 8.9624 10.0128 8.8434 10.3836 8.8706C10.7544 8.8978 10.8408 8.7278 11.1756 8.7686" fill="#F6B40E"/>
<path d="M12.0008 8.38257L9.54612 8.47111C9.54612 8.47111 9.49932 8.4712 9.49827 8.50024C9.50055 8.53057 9.54403 8.52918 9.54403 8.52918L11.9992 8.61743M11.2072 8.28187C10.9001 8.147 10.6473 8.26153 10.3775 8.13025C10.1058 7.99453 9.88614 8.07787 9.75985 8.07263C9.63632 8.0611 9.60481 7.96413 9.5744 7.98904C9.544 8.01394 9.60292 8.1106 9.7675 8.1529C9.93014 8.19077 10.0249 8.09904 10.3565 8.25819C10.688 8.41733 10.8367 8.2915 11.1295 8.4502" fill="#F6B40E"/>
<path d="M12.0484 8.39181L9.74461 7.58642C9.74461 7.58642 9.70134 7.56959 9.68861 7.59603C9.67843 7.62488 9.71916 7.63931 9.71916 7.63931L11.9516 8.60819M11.356 8.01196C11.1269 7.77635 10.8469 7.79077 10.6508 7.57199C10.4548 7.34841 10.2181 7.346 10.1035 7.29552C9.99408 7.24022 10.0043 7.13924 9.96608 7.15126C9.92789 7.16329 9.94317 7.27388 10.0781 7.37245C10.213 7.46621 10.3377 7.41572 10.5796 7.68258C10.8214 7.94945 11.0098 7.88694 11.216 8.13938" fill="#F6B40E"/>
<path d="M12.0885 8.41753L10.2865 6.84081C10.2865 6.84081 10.2533 6.80962 10.2308 6.82945C10.2097 6.85243 10.2415 6.88048 10.2415 6.88048L11.9115 8.58247M11.6027 7.81634C11.4865 7.51586 11.222 7.42798 11.1296 7.15502C11.0391 6.87761 10.8213 6.78982 10.7359 6.70178C10.6572 6.61113 10.7076 6.52152 10.6674 6.51882C10.6273 6.51613 10.5966 6.62382 10.6813 6.76365C10.7679 6.89904 10.9036 6.89748 11.0189 7.23143C11.1342 7.56538 11.3336 7.57571 11.4218 7.88346" fill="#F6B40E"/>
<path d="M11.1216 8.6462C10.7976 8.6632 10.6536 8.8366 10.3548 8.8026C10.5888 8.8774 10.7724 8.6972 11.118 8.7074M11.9748 8.4456L10.4412 9.1086L12.0216 8.5544" fill="#85340A"/>
<path d="M11.1292 8.3176C10.823 8.2162 10.6197 8.32436 10.3574 8.18495C10.5433 8.33863 10.7859 8.23851 11.1011 8.37284M11.9988 8.44063L10.3133 8.49889L11.9979 8.55807" fill="#85340A"/>
<path d="M11.2694 8.01676C11.0276 7.81241 10.7959 7.83886 10.6101 7.61527C10.7196 7.82443 10.9843 7.81962 11.2211 8.05764M12.0229 8.4447L10.4421 7.88934L11.9745 8.55289" fill="#85340A"/>
<path d="M11.5208 7.7895C11.3802 7.5133 11.1555 7.45401 11.0744 7.18028C11.0908 7.41308 11.3373 7.50432 11.4596 7.80978M12.0436 8.45719L10.8081 7.37277L11.9551 8.53967" fill="#85340A"/>
<path d="M12.1152 8.4558L11.0892 6.3478C11.0892 6.3478 11.0712 6.307 11.0424 6.3172C11.0136 6.3308 11.0316 6.3682 11.0316 6.3682L11.8848 8.5442M11.91 7.7248C11.9244 7.4052 11.7156 7.2284 11.7408 6.9428C11.7696 6.6538 11.604 6.494 11.5608 6.3818C11.5248 6.2696 11.6076 6.205 11.5716 6.188C11.5356 6.171 11.4636 6.2594 11.4852 6.4192C11.5104 6.5756 11.6364 6.6232 11.6076 6.9734C11.5788 7.3236 11.7588 7.4052 11.7156 7.7214" fill="#F6B40E"/>
<path d="M12.1243 8.5008L12.0306 6.18244C12.0306 6.18244 12.0305 6.13824 11.9998 6.13726C11.9676 6.13941 11.9691 6.18047 11.9691 6.18047L11.8757 8.4992M12.231 7.75128C12.3738 7.46121 12.2525 7.22241 12.3915 6.96765C12.5352 6.71106 12.447 6.50357 12.4525 6.3843C12.4647 6.26763 12.5674 6.23787 12.541 6.20916C12.5146 6.18044 12.4123 6.23609 12.3675 6.39153C12.3274 6.54513 12.4245 6.63465 12.256 6.94778C12.0875 7.26092 12.2208 7.40136 12.0527 7.67788" fill="#F6B40E"/>
<path d="M12.1146 8.54568L12.9673 6.36991C12.9673 6.36991 12.9851 6.32904 12.9571 6.31702C12.9266 6.3074 12.9113 6.34587 12.9113 6.34587L11.8854 8.45432M12.5168 7.89175C12.7662 7.67537 12.7509 7.41091 12.9826 7.22579C13.2193 7.04067 13.2219 6.81709 13.2753 6.7089C13.3339 6.60552 13.4408 6.61514 13.4281 6.57907C13.4153 6.54301 13.2982 6.55744 13.1939 6.68486C13.0946 6.81228 13.1481 6.93008 12.8655 7.15848C12.5829 7.38687 12.6491 7.56478 12.3818 7.75952" fill="#F6B40E"/>
<path d="M12.0873 8.5836L13.7568 6.88167C13.7568 6.88167 13.7898 6.85035 13.7688 6.82912C13.7445 6.8092 13.7148 6.83922 13.7148 6.83922L11.9127 8.4164M12.7239 8.12481C13.042 8.01507 13.1351 7.76523 13.4241 7.67792C13.7178 7.59245 13.8108 7.38681 13.904 7.30617C14 7.23183 14.0949 7.27935 14.0977 7.24143C14.1006 7.20352 13.9865 7.17452 13.8385 7.25452C13.6951 7.33636 13.6968 7.46452 13.3432 7.57341C12.9896 7.68229 12.9787 7.87058 12.6528 7.95389" fill="#F6B40E"/>
<path d="M11.8452 7.6704C11.8272 7.3644 11.6436 7.2284 11.6796 6.9462C11.6004 7.1672 11.7912 7.3406 11.7804 7.667M12.0576 8.4762L11.3556 7.0278L11.9424 8.5204" fill="#85340A"/>
<path d="M12.1931 7.6776C12.3005 7.38839 12.186 7.19638 12.3336 6.94868C12.1709 7.12423 12.2769 7.35339 12.1346 7.65104M12.0629 8.49883L12.0012 6.90696L11.9385 8.49803" fill="#85340A"/>
<path d="M12.5117 7.81001C12.728 7.58161 12.7 7.36283 12.9368 7.18733C12.7153 7.29071 12.7204 7.54074 12.4684 7.76433M12.0585 8.52164L12.6466 7.02865L11.944 8.47596" fill="#85340A"/>
<path d="M12.7523 8.04745C13.0447 7.91465 13.1075 7.7024 13.3974 7.62582C13.1509 7.64129 13.0542 7.87413 12.7308 7.98961M12.0453 8.54115L13.1935 7.37434L11.958 8.45755" fill="#85340A"/>
<path d="M12.0468 8.6088L14.2788 7.6398C14.2788 7.6398 14.322 7.6228 14.3112 7.5956C14.2968 7.5684 14.2572 7.5854 14.2572 7.5854L11.9532 8.3912M12.8208 8.415C13.1592 8.4286 13.3464 8.2314 13.6488 8.2552C13.9548 8.2824 14.124 8.126 14.2428 8.0852C14.3616 8.0512 14.43 8.1294 14.448 8.0954C14.466 8.0614 14.3724 7.9934 14.2032 8.0138C14.0376 8.0376 13.9872 8.1566 13.6164 8.1294C13.2456 8.1022 13.1592 8.2722 12.8244 8.2314" fill="#F6B40E"/>
<path d="M11.9992 8.61743L14.4539 8.52889C14.4539 8.52889 14.5007 8.5288 14.5017 8.49976C14.4994 8.46943 14.456 8.47082 14.456 8.47082L12.0008 8.38257M12.7928 8.71813C13.0999 8.853 13.3527 8.73846 13.6225 8.86975C13.8942 9.00547 14.1139 8.92213 14.2402 8.92737C14.3637 8.9389 14.3952 9.03587 14.4256 9.01096C14.456 8.98606 14.3971 8.8894 14.2325 8.8471C14.0699 8.80923 13.9751 8.90096 13.6435 8.74181C13.312 8.58267 13.1633 8.7085 12.8705 8.5498" fill="#F6B40E"/>
<path d="M11.9516 8.60819L14.2554 9.41358C14.2554 9.41358 14.2987 9.43041 14.3114 9.40396C14.3216 9.37512 14.2808 9.36069 14.2808 9.36069L12.0484 8.39181M12.644 8.98804C12.8731 9.22365 13.1532 9.20923 13.3492 9.42801C13.5452 9.65159 13.7819 9.654 13.8965 9.70448C14.0059 9.75978 13.9957 9.86076 14.0339 9.84873C14.0721 9.83671 14.0568 9.72612 13.9219 9.62755C13.787 9.53379 13.6623 9.58428 13.4204 9.31741C13.1786 9.05055 12.9902 9.11306 12.784 8.86062" fill="#F6B40E"/>
<path d="M11.9115 8.58247L13.7135 10.1592C13.7135 10.1592 13.7467 10.1904 13.7692 10.1705C13.7903 10.1476 13.7585 10.1195 13.7585 10.1195L12.0885 8.41753M12.3973 9.18366C12.5135 9.48414 12.778 9.57202 12.8704 9.84498C12.9609 10.1224 13.1787 10.2102 13.2641 10.2982C13.3428 10.3889 13.2925 10.4785 13.3326 10.4812C13.3727 10.4839 13.4034 10.3762 13.3187 10.2363C13.2321 10.101 13.0964 10.1025 12.9811 9.76857C12.8658 9.43462 12.6664 9.42429 12.5782 9.11654" fill="#F6B40E"/>
<path d="M12.8784 8.3538C13.2024 8.3368 13.3464 8.1634 13.6452 8.1974C13.4112 8.1226 13.2276 8.3028 12.882 8.2926M12.0252 8.5544L13.5588 7.8914L11.9784 8.4456" fill="#85340A"/>
<path d="M12.8708 8.6824C13.177 8.7838 13.3803 8.67564 13.6426 8.81505C13.4567 8.66137 13.2141 8.76149 12.8989 8.62716M12.0012 8.55937L13.6867 8.50111L12.0021 8.44193" fill="#85340A"/>
<path d="M12.7306 8.98324C12.9724 9.18759 13.2041 9.16114 13.3899 9.38473C13.2804 9.17557 13.0157 9.18038 12.7789 8.94236M11.9771 8.55529L13.5579 9.11066L12.0255 8.44711" fill="#85340A"/>
<path d="M12.4792 9.2105C12.6198 9.4867 12.8445 9.54599 12.9256 9.81972C12.9092 9.58692 12.6627 9.49568 12.5404 9.19022M11.9564 8.54281L13.1919 9.62723L12.0449 8.46033" fill="#85340A"/>
<path d="M12 9.44563C12.553 9.44563 13.0013 9.02225 13.0013 8.5C13.0013 7.97775 12.553 7.55438 12 7.55438C11.447 7.55438 10.9987 7.97775 10.9987 8.5C10.9987 9.02225 11.447 9.44563 12 9.44563Z" fill="#F6B40E"/>
<path d="M12.3413 8.29812C12.2738 8.29812 12.2063 8.32646 12.1687 8.38312C12.2438 8.45042 12.4163 8.45396 12.5325 8.37604C12.5079 8.35142 12.4783 8.3318 12.4454 8.3184C12.4125 8.305 12.3771 8.2981 12.3413 8.29812ZM12.3413 8.31229C12.405 8.31229 12.4688 8.34062 12.4763 8.36896C12.4013 8.45042 12.2775 8.43979 12.1987 8.38312C12.2138 8.36056 12.235 8.34214 12.26 8.32971C12.285 8.31727 12.313 8.31127 12.3413 8.31229Z" fill="#843511"/>
<path d="M12.3525 8.25208C12.2513 8.25208 12.2288 8.27687 12.1838 8.31229C12.1388 8.34771 12.1125 8.34062 12.1088 8.34771C12.0975 8.35479 12.1088 8.37604 12.12 8.36896C12.1388 8.36187 12.1688 8.34771 12.2138 8.31229C12.2588 8.27687 12.3075 8.27687 12.3525 8.27687C12.4913 8.27687 12.5663 8.38312 12.585 8.37604C12.5963 8.36896 12.5063 8.25208 12.3525 8.25208Z" fill="#85340A"/>
<path d="M12.63 8.29813C12.4538 8.15292 12.2288 8.12813 12.105 8.23792C12.076 8.27436 12.0567 8.31688 12.0488 8.36188C12.0338 8.44333 12.06 8.53187 12.1275 8.62396L12.0975 8.63813C12.0386 8.53662 12.0175 8.4194 12.0375 8.30521C12.0424 8.27748 12.0499 8.25021 12.06 8.22375C12.2288 8.09271 12.4613 8.08208 12.63 8.29458V8.29813Z" fill="#85340A"/>
<path d="M12.3375 8.43625C12.3769 8.43625 12.4087 8.40612 12.4087 8.36896C12.4087 8.33179 12.3769 8.30167 12.3375 8.30167C12.2982 8.30167 12.2663 8.33179 12.2663 8.36896C12.2663 8.40612 12.2982 8.43625 12.3375 8.43625Z" fill="#85340A"/>
<path d="M12.5363 8.41146C12.405 8.50708 12.2738 8.5 12.1988 8.4575C12.1238 8.41146 12.1238 8.39729 12.1388 8.39729C12.1538 8.39729 12.1688 8.41146 12.2288 8.44333C12.2925 8.47167 12.3825 8.47167 12.5363 8.41146Z" fill="#85340A"/>
<path d="M11.85 8.63104C11.838 8.63219 11.8264 8.6362 11.8165 8.64272C11.8066 8.64923 11.7986 8.65803 11.7932 8.66827C11.7879 8.67852 11.7854 8.68988 11.786 8.70129C11.7866 8.7127 11.7902 8.72378 11.7966 8.73348C11.803 8.74319 11.8119 8.7512 11.8224 8.75676C11.833 8.76233 11.8449 8.76526 11.857 8.76529C11.8691 8.76531 11.881 8.76243 11.8916 8.75692C11.9021 8.7514 11.9111 8.74343 11.9175 8.73375C11.9422 8.74824 11.9709 8.75563 12 8.755H12.0075C12.0379 8.75657 12.068 8.74914 12.0938 8.73375C12.1007 8.74273 12.1099 8.74996 12.1205 8.75478C12.1311 8.75959 12.1428 8.76186 12.1545 8.76136C12.1663 8.76087 12.1777 8.75763 12.1878 8.75194C12.1979 8.74625 12.2064 8.73829 12.2124 8.72876C12.2185 8.71923 12.222 8.70843 12.2225 8.69733C12.2231 8.68623 12.2207 8.67517 12.2156 8.66514C12.2106 8.65512 12.203 8.64643 12.1935 8.63986C12.184 8.63329 12.1729 8.62904 12.1613 8.6275C12.18 8.63813 12.1913 8.65229 12.1913 8.67354C12.1913 8.69479 12.1725 8.71604 12.1462 8.71604C12.1343 8.71604 12.1229 8.71156 12.1144 8.70359C12.106 8.69562 12.1013 8.68481 12.1013 8.67354C12.0924 8.69102 12.0786 8.70588 12.0614 8.71649C12.0442 8.72711 12.0243 8.73307 12.0038 8.73375C11.9839 8.73245 11.9647 8.72619 11.9483 8.71561C11.9318 8.70504 11.9186 8.69052 11.91 8.67354C11.91 8.67943 11.9087 8.68527 11.9063 8.69067C11.9038 8.69607 11.9001 8.70092 11.8955 8.70492C11.8909 8.70891 11.8855 8.71197 11.8796 8.71388C11.8737 8.7158 11.8675 8.71653 11.8612 8.71604C11.8387 8.71604 11.8163 8.69479 11.8163 8.67354C11.8163 8.65229 11.8275 8.63812 11.8463 8.63104H11.85ZM11.925 8.82583C11.8463 8.82583 11.8125 8.88958 11.745 8.93208C11.7825 8.91792 11.8162 8.88958 11.8687 8.86125C11.9213 8.83292 11.97 8.86833 12 8.86833C12.03 8.86833 12.075 8.83292 12.1313 8.86125C12.1838 8.88958 12.2175 8.91792 12.255 8.93208C12.1838 8.88958 12.1538 8.82583 12.075 8.82583C12.0488 8.82833 12.0233 8.83554 12 8.84708C11.9769 8.83431 11.9515 8.82589 11.925 8.82229V8.82583Z" fill="#85340A"/>
<path d="M11.895 8.91083C11.865 8.91083 11.8275 8.91792 11.7675 8.93208C11.9062 8.90375 11.9363 8.94979 12 8.94979C12.06 8.94979 12.09 8.90375 12.2288 8.93208C12.0787 8.88958 12.045 8.91792 12 8.91792C11.97 8.91792 11.9475 8.90729 11.895 8.91083Z" fill="#85340A"/>
<path d="M11.775 8.93208H11.745C11.9063 8.94979 11.8313 9.03833 12 9.03833C12.1688 9.03833 12.0938 8.94979 12.255 8.93208C12.0862 8.91792 12.1388 9.01354 12 9.01354C11.8688 9.01354 11.91 8.93208 11.775 8.93208ZM12.1388 9.16938C12.1388 9.13462 12.1241 9.10129 12.0981 9.07671C12.0721 9.05214 12.0368 9.03833 12 9.03833C11.9632 9.03833 11.9279 9.05214 11.9019 9.07671C11.8759 9.10129 11.8612 9.13462 11.8612 9.16938C11.8686 9.13981 11.8863 9.11346 11.9115 9.09459C11.9366 9.07573 11.9679 9.06546 12 9.06546C12.0321 9.06546 12.0634 9.07573 12.0885 9.09459C12.1137 9.11346 12.1314 9.13981 12.1388 9.16938Z" fill="#85340A"/>
<path d="M11.3775 8.29813C11.5538 8.15292 11.7788 8.12813 11.9025 8.23792C11.9315 8.27436 11.9508 8.31688 11.9588 8.36188C11.9738 8.44333 11.9475 8.53187 11.88 8.62396L11.91 8.63813C11.9689 8.53662 11.99 8.4194 11.97 8.30521C11.9651 8.27748 11.9576 8.25021 11.9475 8.22375C11.7788 8.09271 11.5463 8.08208 11.3775 8.29458V8.29813Z" fill="#85340A"/>
<path d="M11.655 8.25208C11.7562 8.25208 11.7787 8.27687 11.8237 8.31229C11.8687 8.34771 11.895 8.34062 11.8988 8.34771C11.91 8.35479 11.8988 8.37604 11.8875 8.36896C11.8688 8.36187 11.8387 8.34771 11.7937 8.31229C11.7487 8.27687 11.7 8.27687 11.655 8.27687C11.5162 8.27687 11.4412 8.38312 11.4225 8.37604C11.4113 8.36896 11.5012 8.25208 11.655 8.25208Z" fill="#85340A"/>
<path d="M11.6513 8.29812C11.5838 8.29812 11.5163 8.32646 11.4788 8.38312C11.5538 8.45042 11.7263 8.45396 11.8425 8.37604C11.8179 8.35142 11.7883 8.3318 11.7554 8.3184C11.7225 8.305 11.6871 8.2981 11.6513 8.29812ZM11.6513 8.31229C11.715 8.31229 11.7788 8.34062 11.7863 8.36896C11.7113 8.45042 11.5875 8.43979 11.5087 8.38312C11.5238 8.36056 11.545 8.34214 11.57 8.32971C11.595 8.31727 11.623 8.31127 11.6513 8.31229Z" fill="#843511"/>
<path d="M11.6587 8.43625C11.6981 8.43625 11.73 8.40612 11.73 8.36896C11.73 8.33179 11.6981 8.30167 11.6587 8.30167C11.6194 8.30167 11.5875 8.33179 11.5875 8.36896C11.5875 8.40612 11.6194 8.43625 11.6587 8.43625Z" fill="#85340A"/>
<path d="M11.4713 8.41146C11.6025 8.50708 11.7338 8.5 11.8088 8.4575C11.8837 8.41146 11.8838 8.39729 11.8688 8.39729C11.8538 8.39729 11.8388 8.41146 11.7788 8.44333C11.715 8.47167 11.625 8.47167 11.4713 8.41146Z" fill="#85340A"/>
</svg>
