<svg width="24" height="17" viewBox="0 0 24 17" fill="none" xmlns="http://www.w3.org/2000/svg">
<g clip-path="url(#clip0_1170_15887)">
<path fill-rule="evenodd" clip-rule="evenodd" d="M0 0H24V1.30822H0V0ZM0 2.61641H24V3.92463H0V2.61641ZM0 5.22948H24V6.541H0V5.22948ZM0 7.84589H24V9.15411H0V7.84589ZM0 10.4623H24V11.7705H0V10.4623ZM0 13.0754H24V14.3836H0V13.0754ZM0 15.6918H24V17H0V15.6918Z" fill="#BD3D44"/>
<path fill-rule="evenodd" clip-rule="evenodd" d="M0 1.30822H24V2.61641H0V1.30822ZM0 3.92463H24V5.22948H0V3.92463ZM0 6.5377H24V7.84589H0V6.5377ZM0 9.15411H24V10.4623H0V9.15411ZM0 11.7705H24V13.0787H0V11.7705ZM0 14.3836H24V15.6918H0V14.3836Z" fill="white"/>
<path fill-rule="evenodd" clip-rule="evenodd" d="M0 0H13.6793V9.15411H0V0Z" fill="#192F5D"/>
<path fill-rule="evenodd" clip-rule="evenodd" d="M1.13906 0.391815L1.26562 0.753667H1.66642L1.34295 0.976154L1.46603 1.34137L1.13906 1.11559L0.815625 1.33804L0.938663 0.976154L0.611738 0.753667H1.01955L1.13906 0.391815ZM3.42071 0.391815L3.54375 0.753667H3.94804L3.62107 0.976154L3.74415 1.34137L3.42071 1.11559L3.09375 1.33804L3.21679 0.976154L2.89335 0.753667H3.29415L3.42071 0.391815ZM5.69884 0.391815L5.8254 0.753702H6.22267L5.89924 0.976189L6.02224 1.34141L5.69531 1.11563L5.37187 1.33808L5.49491 0.976189L5.16795 0.753702H5.57227L5.69884 0.391815ZM7.98049 0.391815L8.10349 0.753702H8.50781L8.18085 0.976189L8.30741 1.34141L7.98045 1.11563L7.65352 1.33808L7.78009 0.976189L7.45312 0.753702H7.85392L7.98049 0.391815ZM10.2586 0.391815L10.3852 0.753702H10.7859L10.4625 0.976189L10.5855 1.34141L10.2586 1.11563L9.93514 1.33808L10.0582 0.976189L9.73477 0.753702H10.1355L10.2586 0.391815ZM12.5402 0.391815L12.6633 0.753702H13.0676L12.7406 0.976189L12.8672 1.34141L12.5402 1.11563L12.2133 1.33808L12.3398 0.976189L12.0129 0.753702H12.4172L12.5402 0.391815ZM2.28165 1.30815L2.40469 1.67011H2.80897L2.48201 1.89252L2.60156 2.25448L2.28514 2.032L1.95821 2.25445L2.0742 1.89256L1.75781 1.67007H2.15861L2.28165 1.30815ZM4.55978 1.30815L4.68634 1.67011H5.0871L4.76014 1.89252L4.88674 2.25448L4.55974 2.032L4.23281 2.25445L4.35937 1.89256L4.03241 1.67007H4.4367L4.55978 1.30815ZM6.84142 1.30815L6.96442 1.67011H7.36875L7.04179 1.89252L7.16482 2.25448L6.84139 2.032L6.51446 2.25445L6.6375 1.8926L6.31406 1.67011H6.71486L6.84142 1.30815ZM9.11955 1.30815L9.24611 1.67011H9.64687L9.31991 1.89252L9.44647 2.25448L9.11951 2.032L8.79607 2.25445L8.91915 1.89256L8.59219 1.67007H9L9.11955 1.30815ZM11.4012 1.30815L11.5242 1.67011H11.9285L11.6016 1.89252L11.7246 2.25448L11.4012 2.032L11.0742 2.25445L11.1973 1.89256L10.8738 1.67007H11.2746L11.4012 1.30815ZM1.13906 2.22133L1.26562 2.58988H1.66642L1.34295 2.81233L1.46603 3.17425L1.13906 2.94847L0.815625 3.17425L0.938663 2.809L0.611738 2.58659H1.01955L1.13906 2.22133ZM3.42071 2.22133L3.54375 2.58648H3.94804L3.62107 2.80893L3.74415 3.17089L3.42071 2.94507L3.09375 3.17085L3.21679 2.80564L2.89335 2.58319H3.29415L3.42071 2.22133ZM5.69884 2.22133L5.8254 2.58655H6.22267L5.89924 2.809L6.02224 3.17096L5.69531 2.94514L5.37187 3.17092L5.49491 2.80571L5.16795 2.58326H5.57227L5.69884 2.22133ZM7.98049 2.22133L8.10349 2.58655H8.50781L8.18085 2.809L8.30741 3.17096L7.98045 2.94514L7.65352 3.17092L7.78009 2.80571L7.45312 2.58326H7.85392L7.98049 2.22133ZM10.2586 2.22133L10.3852 2.58655H10.7859L10.4625 2.80897L10.5855 3.17092L10.2586 2.94511L9.93514 3.17089L10.0582 2.80567L9.73477 2.58322H10.1355L10.2586 2.22133ZM12.5402 2.22133L12.6633 2.58655H13.0676L12.7406 2.809L12.8672 3.17096L12.5402 2.94514L12.2133 3.17092L12.3398 2.80571L12.0129 2.58326H12.4172L12.5402 2.22133ZM2.28165 3.1377L2.40469 3.49963H2.80897L2.48201 3.72204L2.60509 4.0873L2.28165 3.86151L1.95469 4.08397L2.07772 3.72208L1.75429 3.49963H2.15512L2.28165 3.1377ZM4.55978 3.1377L4.68634 3.49963H5.0871L4.76014 3.72204L4.88674 4.0873L4.55974 3.86151L4.23281 4.08397L4.35937 3.72208L4.03241 3.49963H4.4367L4.55978 3.1377ZM6.84142 3.1377L6.96442 3.49963H7.36875L7.04179 3.72204L7.16482 4.0873L6.84139 3.86151L6.51446 4.08397L6.6375 3.72208L6.31406 3.49963H6.71486L6.84142 3.1377ZM9.11955 3.1377L9.24611 3.49963H9.64687L9.32344 3.72204L9.44647 4.0873L9.11951 3.86151L8.79607 4.08397L8.91915 3.72208L8.59219 3.49963H9L9.11955 3.1377ZM11.4012 3.1377L11.5242 3.49963H11.9285L11.6016 3.72204L11.7246 4.0873L11.4012 3.86151L11.0742 4.08397L11.1973 3.72208L10.8738 3.49963H11.2746L11.4012 3.1377ZM1.13906 4.05411L1.26562 4.41603H1.66642L1.34295 4.63845L1.46603 5.0037L1.13906 4.77792L0.815625 5.00037L0.938663 4.63848L0.611738 4.41603H1.01955L1.13906 4.05411ZM3.42071 4.05411L3.54375 4.41603H3.94804L3.62107 4.63845L3.74415 5.00041L3.42071 4.77792L3.09375 5.00037L3.21679 4.63848L2.89335 4.41603H3.29415L3.42071 4.05411ZM5.69884 4.05411L5.8254 4.41603H6.22267L5.89924 4.63845L6.02224 5.0037L5.69531 4.77792L5.37187 5.00037L5.49491 4.63848L5.16795 4.41603H5.57227L5.69884 4.05411ZM7.98049 4.05411L8.10349 4.41603H8.50781L8.18085 4.63845L8.30741 5.0037L7.98045 4.77792L7.65352 5.00037L7.78009 4.63848L7.45312 4.41603H7.85392L7.98049 4.05411ZM10.2586 4.05411L10.3852 4.41603H10.7859L10.4625 4.63845L10.5855 5.0037L10.2586 4.77792L9.93514 5.00037L10.0582 4.63848L9.73477 4.41603H10.1355L10.2586 4.05411ZM12.5402 4.05411L12.6633 4.41603H13.0676L12.7406 4.63845L12.8672 5.0037L12.5402 4.77792L12.2133 5.00037L12.3398 4.63848L12.0129 4.41603H12.4172L12.5402 4.05411ZM2.28165 4.97052L2.40469 5.33244H2.80897L2.48201 5.55486L2.60509 5.91681L2.28165 5.69103L1.95469 5.91681L2.07772 5.55156L1.75429 5.32911H2.15512L2.28165 4.97052ZM4.55978 4.97052L4.68634 5.33244H5.0871L4.76014 5.55486L4.88674 5.91681L4.55974 5.69103L4.23281 5.91681L4.35937 5.55156L4.03241 5.32911H4.4367L4.55978 4.97052ZM6.84142 4.97052L6.96442 5.33244H7.36875L7.04179 5.55486L7.16482 5.91681L6.84139 5.69103L6.51446 5.91681L6.6375 5.55156L6.31406 5.32911H6.71486L6.84142 4.97052ZM9.11955 4.97052L9.24611 5.33244H9.64687L9.32344 5.55486L9.44647 5.91681L9.11951 5.69103L8.79607 5.91681L8.91915 5.55156L8.59219 5.32911H9L9.11955 4.97052ZM11.4012 4.97052L11.5242 5.33244H11.9285L11.6016 5.55486L11.7246 5.91681L11.4012 5.69103L11.0742 5.91681L11.1973 5.55156L10.8738 5.32911H11.2746L11.4012 4.97052ZM1.13906 5.88359L1.26562 6.24885H1.66642L1.34295 6.47126L1.46603 6.82989L1.13906 6.60744L0.815625 6.82986L0.938663 6.46797L0.611738 6.24552H1.01955L1.13906 5.88359ZM3.42071 5.88359L3.54375 6.24885H3.94804L3.62107 6.47126L3.74767 6.82989L3.42067 6.60744L3.09375 6.82986L3.22031 6.46797L2.89335 6.24552H3.29415L3.42071 5.88359ZM5.69884 5.88359L5.8254 6.24885H6.22267L5.89924 6.47126L6.02224 6.82989L5.69531 6.60744L5.37187 6.82986L5.49491 6.46797L5.16795 6.24552H5.57227L5.69884 5.88359ZM7.98049 5.88359L8.10349 6.24885H8.50781L8.18085 6.47126L8.30741 6.82989L7.98045 6.60744L7.65352 6.82986L7.78009 6.46797L7.45312 6.24552H7.85392L7.98049 5.88359ZM10.2586 5.88359L10.3852 6.24885H10.7859L10.4625 6.47126L10.5855 6.82989L10.2586 6.60744L9.93514 6.82986L10.0582 6.46797L9.73477 6.24552H10.1355L10.2586 5.88359ZM12.5402 5.88359L12.6633 6.24885H13.0676L12.7406 6.47126L12.8672 6.82989L12.5402 6.60744L12.2133 6.82986L12.3398 6.46797L12.0129 6.24552H12.4172L12.5402 5.88359ZM2.28165 6.8L2.40469 7.16192H2.80897L2.48201 7.38438L2.60509 7.74963L2.28165 7.52384L1.95469 7.74626L2.07772 7.38438L1.75429 7.16192H2.15512L2.28165 6.8ZM4.55978 6.8L4.68634 7.16192H5.0871L4.76014 7.38438L4.88674 7.74963L4.55974 7.52384L4.23281 7.74626L4.35937 7.38438L4.03241 7.16192H4.4367L4.55978 6.8ZM6.84142 6.8L6.96442 7.16192H7.36875L7.04179 7.38438L7.16482 7.74963L6.84139 7.52384L6.51446 7.74626L6.6375 7.38438L6.31406 7.16192H6.71486L6.84142 6.8ZM9.11955 6.8L9.24611 7.16192H9.64687L9.32344 7.38438L9.44647 7.74963L9.11951 7.52384L8.79607 7.74626L8.91915 7.38438L8.59219 7.16192H9L9.11955 6.8ZM11.4012 6.8L11.5242 7.16192H11.9285L11.6016 7.38438L11.7246 7.74963L11.4012 7.52384L11.0742 7.74626L11.1973 7.38438L10.8738 7.16192H11.2746L11.4012 6.8ZM1.13906 7.71641L1.26562 8.07833H1.66642L1.34295 8.30078L1.46603 8.6627L1.13906 8.44025L0.815625 8.66267L0.938663 8.29745L0.611738 8.075H1.01955L1.13906 7.71641ZM3.42071 7.71641L3.54375 8.07833H3.94804L3.62107 8.30078L3.74767 8.6627L3.42067 8.44025L3.09375 8.66267L3.22031 8.29745L2.89335 8.075H3.29415L3.42071 7.71641ZM5.69884 7.71641L5.8254 8.07833H6.22267L5.90625 8.30078L6.02929 8.6627L5.70232 8.44025L5.37889 8.66267L5.50196 8.29745L5.175 8.075H5.57929L5.69884 7.71641ZM7.98049 7.71641L8.10349 8.07833H8.50781L8.18085 8.30078L8.30741 8.6627L7.98045 8.44025L7.65352 8.66267L7.78009 8.29745L7.45312 8.075H7.85392L7.98049 7.71641ZM10.2586 7.71641L10.3852 8.07833H10.7859L10.4625 8.30078L10.5855 8.6627L10.2586 8.44025L9.93514 8.66267L10.0582 8.29745L9.73477 8.075H10.1355L10.2586 7.71641ZM12.5402 7.71641L12.6633 8.07833H13.0676L12.7406 8.30078L12.8672 8.6627L12.5402 8.44025L12.2133 8.66267L12.3398 8.29745L12.0129 8.075H12.4172L12.5402 7.71641Z" fill="white"/>
</g>
<defs>
<clipPath id="clip0_1170_15887">
<rect width="24" height="17" fill="white"/>
</clipPath>
</defs>
</svg>
