<svg width="33" height="33" viewBox="0 0 33 33" fill="none" xmlns="http://www.w3.org/2000/svg">
<path d="M16.5 3C12.9683 3 12.5274 3.01687 11.1408 3.081C9.75625 3.1485 8.81375 3.37462 7.985 3.70875C7.13025 4.053 6.40442 4.51537 5.68183 5.26575C4.95925 6.01612 4.51292 6.76875 4.1825 7.6575C3.86075 8.51813 3.64192 9.49687 3.578 10.9346C3.513 12.3746 3.5 12.8325 3.5 16.5C3.5 20.1675 3.51625 20.6254 3.578 22.0654C3.643 23.502 3.86075 24.4819 4.1825 25.3425C4.5089 26.2435 5.02056 27.0597 5.68183 27.7342C6.33105 28.4214 7.11714 28.9529 7.985 29.2913C8.81483 29.6243 9.75733 29.8526 11.1408 29.919C12.5274 29.9865 12.9683 30 16.5 30C20.0317 30 20.4726 29.9831 21.8593 29.919C23.2427 29.8515 24.1863 29.6243 25.015 29.2913C25.8824 28.9519 26.6683 28.4206 27.3182 27.7342C27.9801 27.0602 28.4919 26.2439 28.8175 25.3425C29.1382 24.4819 29.3581 23.502 29.422 22.0654C29.487 20.6254 29.5 20.1675 29.5 16.5C29.5 12.8325 29.4838 12.3746 29.422 10.9346C29.357 9.498 29.1382 8.517 28.8175 7.6575C28.4909 6.75662 27.9793 5.94044 27.3182 5.26575C26.6694 4.57797 25.8832 4.04646 25.015 3.70875C24.1863 3.37462 23.2427 3.14738 21.8593 3.081C20.4726 3.0135 20.0317 3 16.5 3ZM16.5 5.43C19.9699 5.43 20.3838 5.448 21.7542 5.50987C23.0217 5.57175 23.7096 5.79 24.1667 5.97675C24.7756 6.22087 25.2068 6.51338 25.6639 6.98475C26.1178 7.45725 26.3995 7.90613 26.6346 8.53837C26.8123 9.01312 27.0246 9.7275 27.082 11.0437C27.1438 12.468 27.1578 12.8955 27.1578 16.5C27.1578 20.1045 27.1416 20.5331 27.0777 21.9563C27.0116 23.2725 26.8003 23.9869 26.6216 24.4616C26.4101 25.0475 26.0777 25.5782 25.6477 26.0164C25.2275 26.4633 24.7168 26.8076 24.1527 27.0244C23.6977 27.2089 22.9989 27.4294 21.7314 27.489C20.3513 27.5531 19.945 27.5677 16.4675 27.5677C12.9889 27.5677 12.5827 27.5509 11.2036 27.4845C9.935 27.4159 9.23625 27.1965 8.78125 27.0109C8.21673 26.794 7.70623 26.4484 7.28733 25.9995C6.85246 25.5661 6.51894 25.035 6.31233 24.447C6.13358 23.9745 5.92342 23.2489 5.85733 21.9326C5.80858 20.5151 5.79125 20.0775 5.79125 16.4831C5.79125 12.8876 5.80858 12.4489 5.85733 11.0145C5.92342 9.69825 6.13358 8.97375 6.31233 8.50125C6.53983 7.86 6.83125 7.42125 7.28733 6.94763C7.74125 6.47625 8.16483 6.1725 8.78125 5.93738C9.23625 5.75063 9.91983 5.53125 11.1873 5.46375C12.5686 5.41313 12.9748 5.39625 16.4513 5.39625L16.5 5.43ZM16.5 9.56775C15.6234 9.56775 14.7553 9.74706 13.9454 10.0954C13.1355 10.4438 12.3996 10.9544 11.7797 11.5982C11.1598 12.2419 10.6681 13.0061 10.3326 13.8471C9.99717 14.6882 9.8245 15.5896 9.8245 16.5C9.8245 17.4104 9.99717 18.3118 10.3326 19.1529C10.6681 19.9939 11.1598 20.7581 11.7797 21.4018C12.3996 22.0456 13.1355 22.5562 13.9454 22.9046C14.7553 23.2529 15.6234 23.4323 16.5 23.4323C18.2705 23.4323 19.9684 22.7019 21.2203 21.4018C22.4722 20.1018 23.1755 18.3385 23.1755 16.5C23.1755 14.6615 22.4722 12.8982 21.2203 11.5982C19.9684 10.2981 18.2705 9.56775 16.5 9.56775ZM16.5 21C14.1058 21 12.1667 18.9862 12.1667 16.5C12.1667 14.0138 14.1058 12 16.5 12C18.8942 12 20.8333 14.0138 20.8333 16.5C20.8333 18.9862 18.8942 21 16.5 21ZM24.9998 9.29437C24.9848 9.71358 24.8138 10.1104 24.5229 10.4015C24.232 10.6925 23.8438 10.8551 23.4398 10.8551C23.0359 10.8551 22.6476 10.6925 22.3567 10.4015C22.0658 10.1104 21.8949 9.71358 21.8798 9.29437C21.8798 8.86472 22.0442 8.45267 22.3367 8.14886C22.6293 7.84505 23.0261 7.67438 23.4398 7.67438C23.8536 7.67438 24.2504 7.84505 24.5429 8.14886C24.8355 8.45267 24.9998 8.86472 24.9998 9.29437Z" fill="white"/>
</svg>
