<svg width="16" height="17" viewBox="0 0 16 17" fill="none" xmlns="http://www.w3.org/2000/svg">
<path d="M8 1.5C6.09833 1.5 5.86092 1.50875 5.11425 1.542C4.36875 1.577 3.86125 1.69425 3.415 1.8675C2.95475 2.046 2.56392 2.28575 2.17483 2.67483C1.78575 3.06392 1.54542 3.45417 1.3675 3.915C1.19425 4.36125 1.07642 4.86875 1.042 5.61425C1.007 6.36092 1 6.59833 1 8.5C1 10.4017 1.00875 10.6391 1.042 11.3857C1.077 12.1307 1.19425 12.6388 1.3675 13.085C1.54325 13.5522 1.81876 13.9754 2.17483 14.3252C2.52441 14.6815 2.94769 14.957 3.415 15.1325C3.86183 15.3052 4.36933 15.4236 5.11425 15.458C5.86092 15.493 6.09833 15.5 8 15.5C9.90167 15.5 10.1391 15.4912 10.8857 15.458C11.6307 15.423 12.1388 15.3052 12.585 15.1325C13.0521 14.9565 13.4752 14.681 13.8252 14.3252C14.1816 13.9757 14.4572 13.5524 14.6325 13.085C14.8052 12.6388 14.9236 12.1307 14.958 11.3857C14.993 10.6391 15 10.4017 15 8.5C15 6.59833 14.9912 6.36092 14.958 5.61425C14.923 4.86933 14.8052 4.36067 14.6325 3.915C14.4567 3.44788 14.1812 3.02467 13.8252 2.67483C13.4758 2.31821 13.0525 2.04261 12.585 1.8675C12.1388 1.69425 11.6307 1.57642 10.8857 1.542C10.1391 1.507 9.90167 1.5 8 1.5ZM8 2.76C9.86842 2.76 10.0912 2.76933 10.8292 2.80142C11.5117 2.8335 11.8821 2.94667 12.1282 3.0435C12.4561 3.17008 12.6882 3.32175 12.9344 3.56617C13.1788 3.81117 13.3305 4.04392 13.4571 4.37175C13.5527 4.61792 13.6671 4.98833 13.698 5.67083C13.7312 6.40933 13.7388 6.631 13.7388 8.5C13.7388 10.369 13.7301 10.5912 13.6957 11.3292C13.6601 12.0117 13.5463 12.3821 13.4501 12.6282C13.3362 12.932 13.1572 13.2072 12.9257 13.4344C12.6994 13.6662 12.4244 13.8447 12.1207 13.9571C11.8757 14.0527 11.4994 14.1671 10.8169 14.198C10.0737 14.2312 9.855 14.2388 7.9825 14.2388C6.10942 14.2388 5.89067 14.2301 5.14808 14.1957C4.465 14.1601 4.08875 14.0463 3.84375 13.9501C3.53978 13.8376 3.26489 13.6584 3.03933 13.4257C2.80517 13.2009 2.62558 12.9256 2.51433 12.6207C2.41808 12.3757 2.30492 11.9994 2.26933 11.3169C2.24308 10.5819 2.23375 10.355 2.23375 8.49125C2.23375 6.62692 2.24308 6.39942 2.26933 5.65567C2.30492 4.97317 2.41808 4.5975 2.51433 4.3525C2.63683 4.02 2.79375 3.7925 3.03933 3.54692C3.28375 3.3025 3.51183 3.145 3.84375 3.02308C4.08875 2.92625 4.45683 2.8125 5.13933 2.7775C5.88308 2.75125 6.10183 2.7425 7.97375 2.7425L8 2.76ZM8 4.9055C7.52796 4.9055 7.06055 4.99847 6.62444 5.17912C6.18834 5.35976 5.79208 5.62452 5.4583 5.9583C5.12452 6.29208 4.85976 6.68834 4.67911 7.12444C4.49847 7.56055 4.4055 8.02796 4.4055 8.5C4.4055 8.97204 4.49847 9.43945 4.67911 9.87556C4.85976 10.3117 5.12452 10.7079 5.4583 11.0417C5.79208 11.3755 6.18834 11.6402 6.62444 11.8209C7.06055 12.0015 7.52796 12.0945 8 12.0945C8.95332 12.0945 9.86759 11.7158 10.5417 11.0417C11.2158 10.3676 11.5945 9.45332 11.5945 8.5C11.5945 7.54668 11.2158 6.6324 10.5417 5.9583C9.86759 5.2842 8.95332 4.9055 8 4.9055ZM8 10.8333C6.71083 10.8333 5.66667 9.78917 5.66667 8.5C5.66667 7.21083 6.71083 6.16667 8 6.16667C9.28917 6.16667 10.3333 7.21083 10.3333 8.5C10.3333 9.78917 9.28917 10.8333 8 10.8333ZM12.5768 4.76375C12.5687 4.98111 12.4767 5.18688 12.32 5.33779C12.1634 5.48871 11.9543 5.57302 11.7368 5.57302C11.5193 5.57302 11.3103 5.48871 11.1536 5.33779C10.997 5.18688 10.9049 4.98111 10.8968 4.76375C10.8968 4.54097 10.9853 4.32731 11.1429 4.16978C11.3004 4.01225 11.5141 3.92375 11.7368 3.92375C11.9596 3.92375 12.1733 4.01225 12.3308 4.16978C12.4883 4.32731 12.5768 4.54097 12.5768 4.76375Z" fill="white"/>
</svg>
