<svg width="12" height="15" viewBox="0 0 12 15" fill="none" xmlns="http://www.w3.org/2000/svg">
<path d="M6.3024 0.511667C7.05633 0.5 7.8045 0.505833 8.55267 0.5C8.59871 1.39249 8.91524 2.30248 9.55982 2.93247C10.2044 3.57996 11.1137 3.87746 12 3.97662V6.32743C11.1713 6.29826 10.3368 6.12326 9.58284 5.7616C9.2548 5.60994 8.94977 5.41744 8.65051 5.21911C8.64475 6.92242 8.65626 8.62573 8.63899 10.3232C8.59295 11.1399 8.32822 11.9507 7.86205 12.6215C7.10812 13.7415 5.80171 14.4707 4.46076 14.494C3.63777 14.5407 2.81479 14.3132 2.11266 13.8932C0.950118 13.199 0.132887 11.9274 0.0120292 10.5624C0.000518938 10.2707 -0.0052362 9.97905 0.00627409 9.69322C0.109867 8.5849 0.650851 7.52324 1.4911 6.79992C2.44646 5.95993 3.78165 5.55744 5.03052 5.7966C5.04203 6.65992 5.0075 7.52324 5.0075 8.38657C4.43774 8.1999 3.77014 8.2524 3.26944 8.6024C2.90687 8.84156 2.63062 9.20906 2.48674 9.62322C2.36588 9.92071 2.40042 10.2474 2.40617 10.5624C2.54429 11.519 3.45361 12.324 4.42047 12.2365C5.06505 12.2307 5.68085 11.8515 6.01465 11.2974C6.12399 11.1049 6.24485 10.9065 6.25061 10.679C6.30816 9.63489 6.28514 8.59656 6.29089 7.55241C6.29665 5.20161 6.28514 2.85664 6.3024 0.511667Z" fill="white"/>
</svg>
