<svg width="21" height="16" viewBox="0 0 21 16" fill="none" xmlns="http://www.w3.org/2000/svg">
<path id="Vector" d="M19.9824 2.47058C19.8664 1.99513 19.6453 1.56196 19.3404 1.21292C19.0355 0.863881 18.6571 0.610785 18.2417 0.478095C16.6828 1.37076e-05 10.4088 1.35367e-05 10.4088 1.35367e-05C10.4088 1.35367e-05 4.15064 -0.00952883 2.57589 0.478095C2.16054 0.610785 1.78211 0.863881 1.47719 1.21292C1.17227 1.56196 0.951163 1.99513 0.835244 2.47058C0.539735 4.29751 0.394047 6.15206 0.400082 8.01003C0.395188 9.86099 0.540871 11.7084 0.835244 13.5285C0.951163 14.0039 1.17227 14.4371 1.47719 14.7861C1.78211 15.1352 2.16054 15.3883 2.57589 15.521C4.13314 16 10.4088 16 10.4088 16C10.4088 16 16.6661 16 18.2417 15.521C18.6571 15.3883 19.0355 15.1352 19.3404 14.7861C19.6453 14.4371 19.8664 14.0039 19.9824 13.5285C20.2706 11.7078 20.4101 9.86033 20.3992 8.01003C20.4113 6.15271 20.2717 4.29817 19.9824 2.47058ZM8.40639 11.4368V4.5728L13.6283 8.01003L8.40639 11.4368Z" fill="white"/>
</svg>
